Coordinates
version=1
nRows=14
nColumns=40
inDegrees=yes

Units are S.I. units (second, meters, Newtons, ...)
Angles are in degrees.

endheader
time	pelvis_tilt	pelvis_list	pelvis_rotation	pelvis_tx	pelvis_ty	pelvis_tz	hip_flexion_r	hip_adduction_r	hip_rotation_r	knee_angle_r	knee_angle_r_beta	ankle_angle_r	subtalar_angle_r	mtp_angle_r	hip_flexion_l	hip_adduction_l	hip_rotation_l	knee_angle_l	knee_angle_l_beta	ankle_angle_l	subtalar_angle_l	mtp_angle_l	lumbar_extension	lumbar_bending	lumbar_rotation	arm_flex_r	arm_add_r	arm_rot_r	elbow_flex_r	pro_sup_r	wrist_flex_r	wrist_dev_r	arm_flex_l	arm_add_l	arm_rot_l	elbow_flex_l	pro_sup_l	wrist_flex_l	wrist_dev_l
      0.00000000	      0.04538696	     -2.07401857	      7.80852007	     -1.35027652	      0.90381144	     -1.41897580	     24.46213290	     -2.27524422	    -14.42444136	    -45.96430770	     -0.80222851	      5.70164183	    -15.41414037	     18.83418452	      7.71032631	      2.79084023	      8.47094906	    -26.89942812	     -0.46948359	     12.75671869	      4.63721293	     -2.42885346	     -5.92726223	     -0.20997579	     -7.54531685	     -2.52473176	     -6.49213245	    -10.99680168	     26.70450431	     89.95437384	      0.00000000	      0.00000000	      4.97574787	     11.58528652	     18.19049289	     40.58903881	     89.95437384	      0.00000000	      0.00000000
      0.01000000	     -0.30915050	     -1.89262690	      7.70609311	     -1.34469128	      0.90287736	     -1.41994255	     25.24271204	     -2.60873297	    -14.76103818	    -44.18711983	     -0.77121073	      5.81781113	    -14.94739248	     18.57699944	      7.66470674	      2.51446575	      8.65740589	    -26.91323765	     -0.46972461	     12.83485709	      4.58131249	     -2.41720939	     -5.60840009	     -0.44398080	     -7.53202012	     -2.74515305	     -6.48242746	    -10.99807833	     26.69448987	     89.95437384	      0.00000000	      0.00000000	      5.15383344	     11.65329934	     18.08350594	     41.23889230	     89.95437384	      0.00000000	      0.00000000
      0.02000000	     -0.18804861	     -2.28331526	      7.97132997	     -1.33890303	      0.90274501	     -1.42067309	     25.19998782	     -2.10901463	    -15.05836714	    -41.76188282	     -0.72888236	      5.81164539	    -14.31865330	     18.42733523	      7.26438060	      2.95306223	      8.32406794	    -27.04645219	     -0.47204964	     13.30914863	      4.80623516	     -2.46854540	     -5.78052609	     -0.01345631	     -7.95806844	     -2.63311647	     -6.36123278	    -11.39619782	     26.28207783	     89.95437384	      0.00000000	      0.00000000	      5.20807428	     11.78254500	     17.94749649	     42.09331234	     89.95437384	      0.00000000	      0.00000000
      0.03000000	     -0.50139192	     -2.16418015	      7.95163514	     -1.33334323	      0.90187243	     -1.42165363	     25.82228067	     -2.35816087	    -15.47199666	    -39.73370357	     -0.69348395	      5.67651357	    -13.73681198	     18.21128300	      7.16153037	      2.70363328	      8.31738016	    -26.98701836	     -0.47101233	     13.38889645	      4.70201823	     -2.47703100	     -5.52736235	     -0.14125028	     -8.09093565	     -2.78755150	     -6.35124167	    -11.42071859	     26.28717603	     89.95437384	      0.00000000	      0.00000000	      5.33233185	     11.86976367	     17.82933353	     42.72272328	     89.95437384	      0.00000000	      0.00000000
      0.04000000	     -0.66546408	     -2.23594647	      8.05612078	     -1.32768977	      0.90121863	     -1.42243166	     26.12013014	     -2.33108702	    -15.80820423	    -37.46916687	     -0.65396033	      5.69988350	    -13.02330892	     17.99608646	      6.97234386	      2.74751682	      8.15089727	    -27.05303836	     -0.47216459	     13.65293806	      4.74436540	     -2.49789689	     -5.42464899	     -0.05909414	     -8.30368000	     -2.81185059	     -6.30577514	    -11.59870221	     26.04315178	     89.95437384	      0.00000000	      0.00000000	      5.46955531	     11.94276724	     17.68557937	     43.38904624	     89.95437384	      0.00000000	      0.00000000
      0.05000000	     -0.72350927	     -2.36011454	      8.15291715	     -1.32183453	      0.90074037	     -1.42330310	     26.26230399	     -2.26752556	    -16.34468072	    -35.19498391	     -0.61426835	      5.81614753	    -12.31845391	     17.76623665	      6.63933505	      2.87547980	      8.11503380	    -27.11074366	     -0.47317174	     14.06588229	      4.78997977	     -2.58108693	     -5.40329977	      0.11588403	     -8.47875505	     -2.81215397	     -6.27731985	    -11.88000953	     25.74441459	     89.95437384	      0.00000000	      0.00000000	      5.61933147	     11.94822425	     17.63799786	     44.02282574	     89.95437384	      0.00000000	      0.00000000
      0.06000000	     -0.75062747	     -2.44678722	      8.25664989	     -1.31570535	      0.90023108	     -1.42391060	     26.30171785	     -2.24798718	    -16.92369418	    -32.97261416	     -0.57548068	      5.95337378	    -11.51347740	     17.44310980	      6.22725055	      3.04303864	      8.20918680	    -27.10291399	     -0.47303509	     14.28126901	      4.57626075	     -2.69952854	     -5.38293669	      0.23273518	     -8.63728009	     -2.89231614	     -6.23690825	    -12.05240824	     25.54920002	     89.95437384	      0.00000000	      0.00000000	      5.79266822	     12.01282824	     17.50154751	     44.52951577	     89.95437384	      0.00000000	      0.00000000
      0.07000000	     -0.93731416	     -2.41548901	      8.31499900	     -1.30978629	      0.89946947	     -1.42456787	     26.51231449	     -2.32735025	    -17.26692002	    -30.82981064	     -0.53808170	      6.10642679	    -10.74279573	     17.14244193	      5.98449972	      3.02925669	      8.28263456	    -27.10371393	     -0.47304905	     14.45098881	      4.33154958	     -2.80181023	     -5.22573174	      0.21734296	     -8.78119615	     -2.95328694	     -6.23115864	    -12.11324859	     25.32335216	     89.95437384	      0.00000000	      0.00000000	      5.93086562	     12.06145859	     17.39159056	     45.06903446	     89.95437384	      0.00000000	      0.00000000
      0.08000000	     -1.25609278	     -2.18466033	      8.28281021	     -1.30370509	      0.89840965	     -1.42523326	     27.02997455	     -2.72273149	    -17.78222610	    -29.17596365	     -0.50921663	      6.27633252	    -10.42709045	     17.00224124	      5.81285817	      2.77114309	      8.55415621	    -27.04399870	     -0.47200682	     14.60320569	      4.22890629	     -2.83481930	     -4.91301039	     -0.03879108	     -8.78799523	     -3.12432329	     -6.23068415	    -12.12146099	     25.21086146	     89.95437384	      0.00000000	      0.00000000	      6.11138869	     12.06819395	     17.29957874	     45.48590806	     89.95437384	      0.00000000	      0.00000000
      0.09000000	     -1.36643914	     -2.29333122	      8.45641339	     -1.29776537	      0.89773916	     -1.42560527	     27.04868953	     -2.61831595	    -18.10546245	    -26.99383571	     -0.47113131	      6.24437225	     -9.37149172	     16.73511554	      5.55132705	      2.93076243	      8.37368333	    -27.08242563	     -0.47267750	     14.73308466	      3.96953550	     -2.93695614	     -4.84081131	      0.09085267	     -9.02622387	     -3.10307175	     -6.17346544	    -12.29962338	     24.94232697	     89.95437384	      0.00000000	      0.00000000	      6.22527238	     12.15579932	     17.14328750	     46.05883420	     89.95437384	      0.00000000	      0.00000000
      0.10000000	     -1.19009498	     -2.51533288	      8.64117480	     -1.29118532	      0.89744016	     -1.42602866	     26.78401018	     -2.47964849	    -19.02105677	    -25.15002460	     -0.43895074	      6.43360721	     -8.36294791	     16.27579040	      4.93396763	      3.34836086	      8.55384987	    -27.10559423	     -0.47308187	     14.89130435	      3.54726620	     -3.17303691	     -4.97941628	      0.41740552	     -9.23780668	     -3.10671193	     -6.17153460	    -12.50227336	     24.66463715	     89.95437384	      0.00000000	      0.00000000	      6.37793336	     12.14553910	     17.11507374	     46.45216065	     89.95437384	      0.00000000	      0.00000000
      0.11000000	     -1.46170759	     -2.29869481	      8.58285030	     -1.28506525	      0.89635133	     -1.42631581	     27.35536544	     -2.82757433	    -19.48562267	    -24.10196459	     -0.42065864	      6.61682255	     -8.19182296	     16.11389512	      4.74292434	      3.14221267	      8.78068842	    -27.12179855	     -0.47336468	     14.98240464	      3.46422229	     -3.19462761	     -4.74800669	      0.18752509	     -9.12500927	     -3.25684269	     -6.19583498	    -12.47854236	     24.54619037	     89.95437384	      0.00000000	      0.00000000	      6.63332869	     12.09332004	     17.04201176	     46.78931382	     89.95437384	      0.00000000	      0.00000000
      0.12000000	     -1.31947789	     -2.58220390	      8.93234900	     -1.27827341	      0.89599910	     -1.42664396	     26.97686315	     -2.61493389	    -20.28387290	    -22.28637487	     -0.38897062	      6.57841870	     -6.47772821	     15.23339733	      4.28357600	      3.64840444	      8.73598203	    -27.31837758	     -0.47679564	     15.06036207	      2.76276128	     -3.59835934	     -4.79873091	      0.55787393	     -9.52559197	     -3.23836933	     -6.16618080	    -12.64537245	     24.22700023	     89.95437384	      0.00000000	      0.00000000	      6.69604368	     12.13890383	     16.94485335	     47.14615056	     89.95437384	      0.00000000	      0.00000000
      0.13000000	     -1.36376923	     -2.57103422	      9.06477295	     -1.27157569	      0.89525411	     -1.42682445	     27.07611560	     -2.76488080	    -20.96443010	    -21.21596036	     -0.37028836	      6.63756703	     -5.19901450	     13.79143755	      3.90736513	      3.75593992	      8.83812025	    -27.39521715	     -0.47813674	     15.08364648	      2.37882612	     -4.18378018	     -4.71363750	      0.59026034	     -9.62322275	     -3.34476753	     -6.15771281	    -12.78405807	     24.04272603	     89.95437384	      0.00000000	      0.00000000	      6.84802113	     12.15940960	     16.77019889	     47.41219984	     89.95437384	      0.00000000	      0.00000000
